<svg  viewBox="0 0 17 16" fill="none" xmlns="http://www.w3.org/2000/svg">
<path d="M14.5 4.00001H11.8333V3.33334C11.8327 2.80309 11.6218 2.29472 11.2469 1.91977C10.8719 1.54482 10.3636 1.33392 9.83331 1.33334H7.16665C6.63639 1.33392 6.12802 1.54482 5.75307 1.91977C5.37812 2.29472 5.16722 2.80309 5.16665 3.33334V4.00001H2.49998C2.32317 4.00001 2.1536 4.07025 2.02858 4.19527C1.90355 4.3203 1.83331 4.48987 1.83331 4.66668C1.83331 4.84349 1.90355 5.01306 2.02858 5.13808C2.1536 5.26311 2.32317 5.33334 2.49998 5.33334H3.16665V11.3333C3.16769 12.2171 3.51921 13.0643 4.1441 13.6892C4.769 14.3141 5.61624 14.6656 6.49998 14.6667H10.5C11.3837 14.6656 12.231 14.3141 12.8559 13.6892C13.4808 13.0643 13.8323 12.2171 13.8333 11.3333V5.33334H14.5C14.6768 5.33334 14.8464 5.26311 14.9714 5.13808C15.0964 5.01306 15.1666 4.84349 15.1666 4.66668C15.1666 4.48987 15.0964 4.3203 14.9714 4.19527C14.8464 4.07025 14.6768 4.00001 14.5 4.00001ZM6.49998 3.33334C6.5001 3.15657 6.57037 2.98707 6.69537 2.86207C6.82037 2.73707 6.98987 2.6668 7.16665 2.66668H9.83331C10.0101 2.6668 10.1796 2.73707 10.3046 2.86207C10.4296 2.98707 10.4999 3.15657 10.5 3.33334V4.00001H6.49998V3.33334ZM12.5 11.3333C12.4994 11.8636 12.2885 12.372 11.9136 12.7469C11.5386 13.1219 11.0302 13.3328 10.5 13.3333H6.49998C5.96972 13.3328 5.46135 13.1219 5.08641 12.7469C4.71146 12.372 4.50056 11.8636 4.49998 11.3333V5.33334H12.5V11.3333ZM7.16665 12C7.25421 12.0001 7.34092 11.9829 7.42183 11.9494C7.50273 11.9159 7.57625 11.8668 7.63816 11.8049C7.70008 11.7429 7.74918 11.6694 7.78267 11.5885C7.81615 11.5076 7.83336 11.4209 7.83331 11.3333V7.33334C7.83331 7.15653 7.76308 6.98696 7.63805 6.86194C7.51303 6.73691 7.34346 6.66668 7.16665 6.66668C6.98983 6.66668 6.82027 6.73691 6.69524 6.86194C6.57022 6.98696 6.49998 7.15653 6.49998 7.33334V11.3333C6.49993 11.4209 6.51714 11.5076 6.55062 11.5885C6.58411 11.6694 6.63321 11.7429 6.69513 11.8049C6.75704 11.8668 6.83056 11.9159 6.91146 11.9494C6.99237 11.9829 7.07908 12.0001 7.16665 12ZM9.83331 12C9.92087 12.0001 10.0076 11.9829 10.0885 11.9494C10.1694 11.9159 10.2429 11.8668 10.3048 11.8049C10.3667 11.7429 10.4158 11.6694 10.4493 11.5885C10.4828 11.5076 10.5 11.4209 10.5 11.3333V7.33334C10.5 7.15653 10.4297 6.98696 10.3047 6.86194C10.1797 6.73691 10.0101 6.66668 9.83331 6.66668C9.6565 6.66668 9.48693 6.73691 9.36191 6.86194C9.23688 6.98696 9.16665 7.15653 9.16665 7.33334V11.3333C9.16659 11.4209 9.1838 11.5076 9.21729 11.5885C9.25077 11.6694 9.29988 11.7429 9.36179 11.8049C9.42371 11.8668 9.49722 11.9159 9.57813 11.9494C9.65904 11.9829 9.74575 12.0001 9.83331 12Z" fill="currentColor"/>
</svg>
